<svg xmlns="http://www.w3.org/2000/svg" viewBox="0 0 24 24">
  <rect width="24" height="24" rx="5" fill="#0a0d0c"/>
  <path transform="translate(2.498 4.560) scale(0.14880)" d="M37.703848662752776 99.99999999999999Q26.418786692759294 99.99999999999999 18.10176125244618 96.47749510763208Q9.784735812133071 92.95499021526417 5.088062622309197 86.2361382909328Q0.3913894324853233 79.51728636660143 0.0 69.92824527071102H17.15590345727332Q17.612524461839527 75.01630789302021 20.352250489236788 78.40834964122635Q23.09197651663405 81.80039138943248 27.592954990215265 83.4637964774951Q32.09393346379648 85.12720156555773 37.573385518590996 85.12720156555773Q43.31376386170907 85.12720156555773 47.71689497716895 83.36594911937377Q52.120026092628834 81.6046966731898 54.59882583170254 78.44096542726678Q57.077625570776256 75.27723418134376 57.077625570776256 71.10241356816698Q57.077625570776256 67.31898238747553 54.89236790606654 64.84018264840182Q52.707110241356816 62.36138290932811 48.760600130463146 60.6327462491846Q44.81409001956947 58.90410958904109 39.53033268101761 57.59947814742335L28.506196999347683 54.729288975864314Q16.307893020221787 51.59817351598173 9.49119373776908 45.27071102413568Q2.674494455316373 38.94324853228962 2.674494455316373 28.63666014350946Q2.674494455316373 20.026092628832345 7.30593607305936 13.568166992824523Q11.937377690802347 7.110241356816701 19.960861056751465 3.5551206784083504Q27.984344422700584 0.0 38.160469667318985 0.0Q48.53228962818004 0.0 56.360078277886494 3.5877364644487884Q64.18786692759295 7.175472928897577 68.59099804305282 13.502935420743633Q72.9941291585127 19.83039791258969 73.18982387475538 27.919112850619697H56.29484670580561Q55.64253098499674 21.656881930854524 50.71754729288976 18.232224396607954Q45.79256360078278 14.807566862361384 37.89954337899543 14.807566862361384Q32.42009132420092 14.807566862361384 28.47358121330724 16.470971950424Q24.527071102413565 18.13437703848662 22.40704500978473 21.004566210045652Q20.2870189171559 23.874755381604686 20.2870189171559 27.59295499021526Q20.2870189171559 31.63731245923026 22.798434442270057 34.246575342465746Q25.309849967384213 36.855838225701234 29.125896934116113 38.421395955642524Q32.94194390084801 39.98695368558381 36.85583822570124 40.96542726679712L45.92302674494455 43.31376386170906Q51.33724722765819 44.61839530332681 56.425309849967384 46.77103718199608Q61.51337247227658 48.92367906066536 65.59034572733202 52.21787345075016Q69.66731898238747 55.51206784083496 72.08088714938029 60.20874103065883Q74.49445531637312 64.9054142204827 74.49445531637312 71.23287671232876Q74.49445531637312 79.77821265492497 70.12393998695367 86.26875407697324Q65.75342465753424 92.75929549902152 57.534246575342465 96.37964774951075Q49.31506849315068 99.99999999999999 37.703848662752776 99.99999999999999Z" fill="#f4f3ee"/><circle cx="16.462" cy="18.054" r="2.520" fill="#14F195"/>
</svg>
