<svg xmlns="http://www.w3.org/2000/svg" viewBox="0 0 1280 640" width="1280" height="640">
  <rect width="1280" height="640" fill="#0a0d0c"/>
  <g opacity="0.06" stroke="#f4f3ee" stroke-width="1"><line x1="0" y1="120" x2="1280" y2="120"/><line x1="0" y1="520" x2="1280" y2="520"/></g>
  <path transform="translate(120.0 170.0) scale(3.0000)" d="M37.703848662752776 99.99999999999999Q26.418786692759294 99.99999999999999 18.10176125244618 96.47749510763208Q9.784735812133071 92.95499021526417 5.088062622309197 86.2361382909328Q0.3913894324853233 79.51728636660143 0.0 69.92824527071102H17.15590345727332Q17.612524461839527 75.01630789302021 20.352250489236788 78.40834964122635Q23.09197651663405 81.80039138943248 27.592954990215265 83.4637964774951Q32.09393346379648 85.12720156555773 37.573385518590996 85.12720156555773Q43.31376386170907 85.12720156555773 47.71689497716895 83.36594911937377Q52.120026092628834 81.6046966731898 54.59882583170254 78.44096542726678Q57.077625570776256 75.27723418134376 57.077625570776256 71.10241356816698Q57.077625570776256 67.31898238747553 54.89236790606654 64.84018264840182Q52.707110241356816 62.36138290932811 48.760600130463146 60.6327462491846Q44.81409001956947 58.90410958904109 39.53033268101761 57.59947814742335L28.506196999347683 54.729288975864314Q16.307893020221787 51.59817351598173 9.49119373776908 45.27071102413568Q2.674494455316373 38.94324853228962 2.674494455316373 28.63666014350946Q2.674494455316373 20.026092628832345 7.30593607305936 13.568166992824523Q11.937377690802347 7.110241356816701 19.960861056751465 3.5551206784083504Q27.984344422700584 0.0 38.160469667318985 0.0Q48.53228962818004 0.0 56.360078277886494 3.5877364644487884Q64.18786692759295 7.175472928897577 68.59099804305282 13.502935420743633Q72.9941291585127 19.83039791258969 73.18982387475538 27.919112850619697H56.29484670580561Q55.64253098499674 21.656881930854524 50.71754729288976 18.232224396607954Q45.79256360078278 14.807566862361384 37.89954337899543 14.807566862361384Q32.42009132420092 14.807566862361384 28.47358121330724 16.470971950424Q24.527071102413565 18.13437703848662 22.40704500978473 21.004566210045652Q20.2870189171559 23.874755381604686 20.2870189171559 27.59295499021526Q20.2870189171559 31.63731245923026 22.798434442270057 34.246575342465746Q25.309849967384213 36.855838225701234 29.125896934116113 38.421395955642524Q32.94194390084801 39.98695368558381 36.85583822570124 40.96542726679712L45.92302674494455 43.31376386170906Q51.33724722765819 44.61839530332681 56.425309849967384 46.77103718199608Q61.51337247227658 48.92367906066536 65.59034572733202 52.21787345075016Q69.66731898238747 55.51206784083496 72.08088714938029 60.20874103065883Q74.49445531637312 64.9054142204827 74.49445531637312 71.23287671232876Q74.49445531637312 79.77821265492497 70.12393998695367 86.26875407697324Q65.75342465753424 92.75929549902152 57.534246575342465 96.37964774951075Q49.31506849315068 99.99999999999999 37.703848662752776 99.99999999999999Z" fill="#f4f3ee"/>
  <circle cx="385.5" cy="451.3" r="34.0" fill="#14F195"/>
  <g transform="translate(500 250) scale(1.1800)"><path d="M28.873966942148765 79.28719008264463Q20.247933884297524 79.28719008264463 13.894628099173556 76.54958677685951Q7.541322314049586 73.81198347107438 3.9514462809917354 68.72417355371901Q0.3615702479338845 63.63636363636364 0.0 56.61157024793389H11.828512396694215Q12.190082644628102 60.79545454545455 14.54028925619835 63.533057851239676Q16.890495867768596 66.2706611570248 20.66115702479339 67.61363636363637Q24.431818181818183 68.95661157024794 28.822314049586776 68.95661157024794Q33.7293388429752 68.95661157024794 37.52582644628099 67.43285123966943Q41.32231404958677 65.90909090909092 43.54338842975206 63.094008264462815Q45.764462809917354 60.278925619834716 45.764462809917354 56.55991735537191Q45.764462809917354 53.20247933884298 43.82747933884298 51.05888429752066Q41.89049586776859 48.91528925619835 38.61053719008264 47.4948347107438Q35.33057851239669 46.07438016528926 31.14669421487603 44.98966942148761L22.15909090909091 42.5103305785124Q12.706611570247937 39.97933884297521 7.41219008264463 35.0206611570248Q2.1177685950413228 30.061983471074385 2.1177685950413228 22.159090909090914Q2.1177685950413228 15.495867768595048 5.707644628099175 10.51136363636364Q9.297520661157026 5.526859504132233 15.470041322314051 2.7634297520661164Q21.642561983471076 0.0 29.390495867768596 0.0Q37.29338842975206 0.0 43.31095041322314 2.7634297520661164Q49.328512396694215 5.526859504132233 52.763429752066116 10.330578512396698Q56.19834710743802 15.134297520661164 56.353305785123965 21.280991735537192H44.88636363636363Q44.31818181818182 16.01239669421488 40.0051652892562 13.119834710743806Q35.692148760330575 10.227272727272734 29.132231404958677 10.227272727272734Q24.483471074380166 10.227272727272734 21.048553719008268 11.673553719008268Q17.613636363636367 13.119834710743802 15.72830578512397 15.676652892561986Q13.842975206611573 18.23347107438017 13.842975206611573 21.48760330578513Q13.842975206611573 25.154958677685954 16.089876033057855 27.401859504132236Q18.336776859504134 29.64876033057852 21.5650826446281 30.965909090909097Q24.793388429752067 32.283057851239676 27.737603305785125 33.057851239669425L35.22727272727273 35.0206611570248Q38.89462809917355 35.9504132231405 42.7944214876033 37.525826446281Q46.69421487603306 39.101239669421496 50.0 41.60640495867769Q53.30578512396694 44.11157024793389 55.34607438016529 47.80475206611571Q57.38636363636363 51.497933884297524 57.38636363636363 56.714876033057855Q57.38636363636363 63.223140495867774 54.02892561983471 68.33677685950414Q50.671487603305785 73.4504132231405 44.292355371900825 76.36880165289256Q37.913223140495866 79.28719008264463 28.873966942148765 79.28719008264463ZM94.78305785123968 79.18388429752066Q86.67355371900827 79.18388429752066 80.60433884297521 75.46487603305786Q74.53512396694215 71.74586776859505 71.17768595041323 65.0309917355372Q67.8202479338843 58.316115702479344 67.8202479338843 49.43181818181819Q67.8202479338843 40.444214876033065 71.17768595041323 33.70351239669422Q74.53512396694215 26.96280991735538 80.60433884297521 23.243801652892568Q86.67355371900827 19.524793388429757 94.78305785123968 19.524793388429757Q102.94421487603306 19.524793388429757 109.01342975206612 23.243801652892568Q115.08264462809917 26.96280991735538 118.44008264462809 33.70351239669422Q121.79752066115702 40.444214876033065 121.79752066115702 49.43181818181819Q121.79752066115702 58.316115702479344 118.44008264462809 65.0309917355372Q115.08264462809917 71.74586776859505 109.01342975206612 75.46487603305786Q102.94421487603306 79.18388429752066 94.78305785123968 79.18388429752066ZM94.78305785123968 69.57644628099175Q100.05165289256198 69.57644628099175 103.48657024793388 66.81301652892563Q106.92148760330579 64.04958677685951 108.60020661157026 59.47830578512397Q110.27892561983471 54.90702479338843 110.27892561983471 49.43181818181819Q110.27892561983471 43.904958677685954 108.60020661157026 39.28202479338843Q106.92148760330579 34.659090909090914 103.48657024793388 31.895661157024797Q100.05165289256198 29.13223140495868 94.78305785123968 29.13223140495868Q89.56611570247934 29.13223140495868 86.15702479338843 31.895661157024797Q82.74793388429752 34.659090909090914 81.06921487603306 39.25619834710744Q79.39049586776859 43.85330578512397 79.39049586776859 49.43181818181819Q79.39049586776859 54.90702479338843 81.06921487603306 59.47830578512397Q82.74793388429752 64.04958677685951 86.15702479338843 66.81301652892563Q89.56611570247934 69.57644628099175 94.78305785123968 69.57644628099175ZM158.67768595041323 79.18388429752066Q150.5681818181818 79.18388429752066 144.49896694214874 75.46487603305786Q138.4297520661157 71.74586776859505 135.0723140495868 65.0309917355372Q131.71487603305786 58.316115702479344 131.71487603305786 49.43181818181819Q131.71487603305786 40.444214876033065 135.0723140495868 33.70351239669422Q138.4297520661157 26.96280991735538 144.49896694214874 23.243801652892568Q150.5681818181818 19.524793388429757 158.67768595041323 19.524793388429757Q166.8388429752066 19.524793388429757 172.90805785123968 23.243801652892568Q178.97727272727275 26.96280991735538 182.33471074380168 33.70351239669422Q185.69214876033058 40.444214876033065 185.69214876033058 49.43181818181819Q185.69214876033058 58.316115702479344 182.33471074380168 65.0309917355372Q178.97727272727275 71.74586776859505 172.90805785123968 75.46487603305786Q166.8388429752066 79.18388429752066 158.67768595041323 79.18388429752066ZM158.67768595041323 69.57644628099175Q163.94628099173553 69.57644628099175 167.38119834710744 66.81301652892563Q170.81611570247935 64.04958677685951 172.49483471074382 59.47830578512397Q174.17355371900828 54.90702479338843 174.17355371900828 49.43181818181819Q174.17355371900828 43.904958677685954 172.49483471074382 39.28202479338843Q170.81611570247935 34.659090909090914 167.38119834710744 31.895661157024797Q163.94628099173553 29.13223140495868 158.67768595041323 29.13223140495868Q153.4607438016529 29.13223140495868 150.051652892562 31.895661157024797Q146.64256198347107 34.659090909090914 144.9638429752066 39.25619834710744Q143.28512396694217 43.85330578512397 143.28512396694217 49.43181818181819Q143.28512396694217 54.90702479338843 144.9638429752066 59.47830578512397Q146.64256198347107 64.04958677685951 150.051652892562 66.81301652892563Q153.4607438016529 69.57644628099175 158.67768595041323 69.57644628099175ZM222.98553719008265 20.247933884297524V29.493801652892564H211.46694214876035V62.396694214876035Q211.46694214876035 65.85743801652893 212.9390495867769 67.48450413223141Q214.4111570247934 69.11157024793388 217.76859504132233 69.11157024793388Q218.64669421487605 69.11157024793388 220.09297520661158 68.90495867768595Q221.53925619834712 68.69834710743802 222.5723140495868 68.4917355371901L224.58677685950414 77.58264462809917Q222.77892561983472 78.20247933884298 220.7128099173554 78.48657024793388Q218.64669421487605 78.7706611570248 216.6322314049587 78.7706611570248Q208.7809917355372 78.7706611570248 204.4421487603306 74.7159090909091Q200.10330578512398 70.6611570247934 200.10330578512398 63.32644628099174V29.493801652892564H191.68388429752068V20.247933884297524H200.10330578512398V6.508264462809919H211.46694214876035V20.247933884297524ZM245.6611570247934 43.80165289256199V77.99586776859505H234.29752066115702V1.0330578512396755H245.55785123966942V30.578512396694222Q247.88223140495867 25.723140495867774 251.39462809917356 23.088842975206617Q256.198347107438 19.524793388429757 263.0165289256198 19.524793388429757Q268.90495867768595 19.524793388429757 273.32128099173553 22.004132231404963Q277.7376033057851 24.48347107438017 280.19111570247935 29.313016528925626Q282.64462809917353 34.14256198347108 282.64462809917353 41.32231404958678V77.99586776859505H271.2809917355372V42.71694214876034Q271.2809917355372 36.46694214876034 268.02685950413223 32.95454545454546Q264.77272727272725 29.442148760330582 259.09090909090907 29.442148760330582Q255.2685950413223 29.442148760330582 252.22107438016528 31.120867768595044Q249.17355371900825 32.799586776859506 247.41735537190084 36.00206611570248Q245.6611570247934 39.20454545454546 245.6611570247934 43.80165289256199ZM318.64669421487605 79.18388429752066Q312.39669421487605 79.18388429752066 307.5154958677686 77.37603305785125Q302.63429752066116 75.56818181818183 299.50929752066116 72.02995867768595Q296.38429752066116 68.4917355371901 295.3512396694215 63.37809917355372L306.0433884297521 61.15702479338843Q307.2314049586777 65.650826446281 310.48553719008265 67.8202479338843Q313.73966942148763 69.9896694214876 318.75 69.9896694214876Q324.22520661157023 69.9896694214876 327.4793388429752 67.69111570247935Q330.7334710743802 65.39256198347108 330.7334710743802 62.190082644628106Q330.7334710743802 59.400826446281 328.7448347107438 57.59297520661158Q326.75619834710744 55.78512396694215 322.62396694214874 54.90702479338843L312.91322314049586 52.685950413223146Q304.85537190082647 50.87809917355372 300.9297520661157 46.900826446280995Q297.004132231405 42.92355371900827 297.004132231405 36.72520661157025Q297.004132231405 31.55991735537191 299.89669421487605 27.685950413223146Q302.7892561983471 23.811983471074385 307.79958677685954 21.66838842975207Q312.8099173553719 19.524793388429757 319.3698347107438 19.524793388429757Q325.6198347107438 19.524793388429757 330.0619834710744 21.332644628099178Q334.504132231405 23.1404958677686 337.26756198347107 26.39462809917356Q340.0309917355372 29.64876033057852 341.21900826446284 33.935950413223146L331.0433884297521 36.15702479338844Q329.9586776859504 33.10950413223141 327.27272727272725 30.810950413223143Q324.58677685950414 28.51239669421488 319.47314049586777 28.51239669421488Q314.7727272727273 28.51239669421488 311.62190082644634 30.6301652892562Q308.4710743801653 32.747933884297524 308.4710743801653 36.00206611570248Q308.4710743801653 38.89462809917356 310.56301652892563 40.67665289256199Q312.65495867768595 42.45867768595042 317.4070247933884 43.54338842975207L326.7045454545455 45.60950413223141Q334.7107438016529 47.41735537190083 338.5847107438017 51.291322314049594Q342.4586776859504 55.16528925619835 342.4586776859504 61.20867768595042Q342.4586776859504 66.47727272727273 339.4369834710744 70.53202479338844Q336.4152892561984 74.58677685950414 331.0692148760331 76.8853305785124Q325.72314049586777 79.18388429752066 318.64669421487605 79.18388429752066ZM371.07438016528926 79.28719008264463Q365.599173553719 79.28719008264463 361.1570247933885 77.24690082644628Q356.71487603305786 75.20661157024794 354.1322314049587 71.2809917355372Q351.54958677685954 67.35537190082646 351.54958677685954 61.67355371900827Q351.54958677685954 56.76652892561984 353.4349173553719 53.61570247933885Q355.32024793388433 50.464876033057855 358.5485537190083 48.605371900826455Q361.77685950413223 46.74586776859505 365.728305785124 45.816115702479344Q369.6797520661157 44.88636363636364 373.7603305785124 44.42148760330579Q378.87396694214874 43.80165289256199 382.0764462809917 43.41425619834712Q385.2789256198347 43.02685950413224 386.8026859504132 42.122933884297524Q388.3264462809917 41.219008264462815 388.3264462809917 39.20454545454546V38.89462809917356Q388.3264462809917 35.6404958677686 387.08677685950414 33.419421487603316Q385.84710743801656 31.198347107438025 383.3935950413223 29.98450413223141Q380.9400826446281 28.770661157024797 377.2727272727273 28.770661157024797Q373.5020661157025 28.770661157024797 370.7902892561984 29.932851239669425Q368.07851239669424 31.095041322314053 366.39979338842977 32.90289256198348Q364.7210743801653 34.710743801652896 363.8946280991736 36.67355371900827L353.202479338843 33.884297520661164Q355.1652892561984 28.719008264462815 358.83264462809916 25.568181818181824Q362.5 22.417355371900832 367.2520661157025 20.971074380165295Q372.004132231405 19.524793388429757 377.06611570247935 19.524793388429757Q380.57851239669424 19.524793388429757 384.504132231405 20.351239669421492Q388.4297520661157 21.177685950413228 391.8904958677686 23.347107438016533Q395.3512396694215 25.516528925619838 397.5206611570248 29.442148760330582Q399.6900826446281 33.367768595041326 399.6900826446281 39.66942148760331V77.99586776859505H388.68801652892563V70.09297520661158H388.1198347107438Q386.9834710743802 72.31404958677686 384.7623966942149 74.43181818181819Q382.5413223140496 76.54958677685951 379.1580578512397 77.91838842975207Q375.77479338842977 79.28719008264463 371.07438016528926 79.28719008264463ZM373.60537190082647 70.14462809917356Q378.254132231405 70.14462809917356 381.5599173553719 68.33677685950414Q384.86570247933884 66.52892561983472 386.6219008264463 63.533057851239676Q388.3780991735537 60.537190082644635 388.3780991735537 57.17975206611571V49.79338842975207Q387.7582644628099 50.41322314049587 386.02789256198344 50.903925619834716Q384.297520661157 51.39462809917356 382.0764462809917 51.78202479338844Q379.85537190082647 52.169421487603316 377.7892561983471 52.427685950413235Q375.72314049586777 52.685950413223146 374.3801652892562 52.84090909090909Q371.1776859504132 53.25413223140497 368.51756198347107 54.23553719008265Q365.85743801652893 55.21694214876034 364.2820247933885 57.02479338842976Q362.70661157024796 58.832644628099175 362.70661157024796 61.82851239669422Q362.70661157024796 64.56611570247935 364.1270661157025 66.42561983471074Q365.547520661157 68.28512396694215 367.97520661157023 69.21487603305786Q370.4028925619835 70.14462809917356 373.60537190082647 70.14462809917356ZM414.2045454545455 98.7603305785124 416.9938016528926 89.51446280991736 418.2851239669422 89.82438016528926Q421.2293388429752 90.59917355371901 423.5795454545455 90.23760330578513Q425.9297520661157 89.87603305785125 427.66012396694214 88.04235537190084Q429.3904958677686 86.20867768595042 430.4235537190083 82.4896694214876L431.6632231404959 78.25413223140497L409.71074380165294 20.247933884297524H422.004132231405L433.41942148760336 53.04752066115703Q435.3305785123967 58.52272727272728 436.62190082644634 63.94628099173554Q437.08677685950414 66.06404958677686 437.603305785124 68.18181818181819Q438.1714876033058 66.06404958677686 438.73966942148763 63.89462809917356Q440.0826446280992 58.47107438016529 441.99380165289256 53.04752066115703L453.6157024793389 20.247933884297524H465.805785123967L440.702479338843 86.00206611570249Q438.94628099173553 90.650826446281 436.3894628099174 93.75Q433.8326446280992 96.84917355371901 430.32024793388433 98.42458677685951Q426.80785123966945 100.0 422.15909090909093 100.0Q419.4731404958678 100.0 417.3553719008265 99.61260330578513Q415.23760330578517 99.22520661157026 414.2045454545455 98.7603305785124ZM500.72314049586777 79.18388429752066Q492.2004132231405 79.18388429752066 486.0020661157025 75.51652892561984Q479.80371900826447 71.84917355371901 476.47210743801656 65.18595041322314Q473.1404958677686 58.52272727272728 473.1404958677686 49.53512396694215Q473.1404958677686 40.650826446280995 476.42045454545456 33.884297520661164Q479.7004132231405 27.117768595041326 485.6921487603306 23.32128099173554Q491.68388429752065 19.524793388429757 499.7417355371901 19.524793388429757Q504.7004132231405 19.524793388429757 509.297520661157 21.151859504132236Q513.8946280991736 22.778925619834716 517.5619834710744 26.23966942148761Q521.2293388429753 29.7004132231405 523.3729338842975 35.20144628099174Q525.5165289256198 40.70247933884298 525.5165289256198 48.553719008264466V52.582644628099175H484.5557851239669Q484.7623966942149 57.79958677685951 486.6219008264463 61.46694214876034Q488.6363636363636 65.59917355371901 492.30371900826447 67.69111570247935Q495.9710743801653 69.78305785123968 500.8264462809917 69.78305785123968Q504.0289256198347 69.78305785123968 506.61157024793386 68.87913223140497Q509.1942148760331 67.97520661157026 511.0795454545455 66.14152892561984Q512.9648760330579 64.30785123966943 513.9462809917355 61.621900826446286L524.6384297520661 64.15289256198348Q523.2438016528926 68.59504132231406 519.9638429752066 72.00413223140497Q516.6838842975206 75.41322314049587 511.8026859504132 77.29855371900827Q506.92148760330576 79.18388429752066 500.72314049586777 79.18388429752066ZM484.60743801652893 44.11157024793389H514.2561983471074Q513.8946280991736 40.49586776859505 512.7066115702479 37.50000000000001Q511.05371900826447 33.47107438016529 507.8254132231405 31.19834710743802Q504.59710743801656 28.92561983471075 499.7417355371901 28.92561983471075Q494.93801652892563 28.92561983471075 491.5289256198347 31.250000000000007Q488.1198347107438 33.57438016528926 486.3636363636364 37.34504132231405Q484.86570247933884 40.49586776859505 484.60743801652893 44.11157024793389ZM537.9648760330579 77.99586776859505V20.247933884297524H548.9669421487603V29.545454545454554H549.5867768595041Q551.1880165289256 24.79338842975207 555.1652892561983 22.10743801652893Q559.1425619834711 19.421487603305792 564.2045454545454 19.421487603305792Q565.2892561983471 19.421487603305792 566.6838842975206 19.498966942148765Q568.0785123966942 19.57644628099174 569.0082644628098 19.731404958677693V30.578512396694222Q568.3884297520661 30.371900826446286 566.6322314049587 30.165289256198353Q564.8760330578513 29.95867768595042 563.0681818181818 29.95867768595042Q559.1425619834711 29.95867768595042 555.9917355371902 31.61157024793389Q552.8409090909091 33.26446280991736 551.0847107438017 36.18285123966943Q549.3285123966942 39.101239669421496 549.3285123966942 42.92355371900827V77.99586776859505Z" fill="#f4f3ee"/><path d="M587.2933884297521 78.7706611570248Q584.0909090909091 78.7706611570248 581.8698347107438 76.54958677685951Q579.6487603305786 74.32851239669422 579.6487603305786 71.17768595041323Q579.6487603305786 67.97520661157026 581.8698347107438 65.77995867768595Q584.0909090909091 63.58471074380166 587.2933884297521 63.58471074380166Q590.4442148760331 63.58471074380166 592.6652892561984 65.77995867768595Q594.8863636363637 67.97520661157026 594.8863636363637 71.17768595041323Q594.8863636363637 74.32851239669422 592.6652892561984 76.54958677685951Q590.4442148760331 78.7706611570248 587.2933884297521 78.7706611570248Z" fill="#14F195"/></g>
  <text x="500" y="430" font-family="Inter, system-ui, sans-serif" font-size="32" font-weight="300" fill="#f4f3ee" opacity="0.78">A calibration-transparent fair-value oracle</text>
  <text x="500" y="475" font-family="Inter, system-ui, sans-serif" font-size="32" font-weight="300" fill="#f4f3ee" opacity="0.78">for tokenized RWAs on Solana.</text>
  <text x="500" y="555" font-family="ui-monospace, monospace" font-size="22" fill="#14F195" letter-spacing="2">soothsayer-landing.vercel.app</text>
</svg>
